<?xml version="1.0" ?><svg viewBox="0 0 32 32" xmlns="http://www.w3.org/2000/svg"><title/><g id="Gmail"><path d="M25.49,30H4.5A3.35,3.35,0,0,1,2,29a3.35,3.35,0,0,1-1-2.48V5.5A3.35,3.35,0,0,1,2,3,3.35,3.35,0,0,1,4.5,2h21A3.35,3.35,0,0,1,28,3,3.35,3.35,0,0,1,29,5.5v21A3.52,3.52,0,0,1,25.49,30Zm-3-7.17a2.93,2.93,0,0,0,1.71-.37,1.41,1.41,0,0,0,.49-1.22V10.36a1.55,1.55,0,0,0-.47-1.13,1.51,1.51,0,0,0-1.13-.47H6.83a1.55,1.55,0,0,0-1.13.47,1.53,1.53,0,0,0-.47,1.12V21.24a1.53,1.53,0,0,0,.47,1.12,1.55,1.55,0,0,0,1.13.47Zm-14.7-.76V13.14l6.46,4.45Zm14.14.37H8l6.63-4.63a.6.6,0,0,0,.34.16,1,1,0,0,0,.33-.16Zm-7-8.15L8,9.16H21.9Zm7.14,7.78-6.46-4.48,6.46-4.45Z"/></g></svg>