<svg height="32" viewBox="0 0 32 32" width="32" xmlns="http://www.w3.org/2000/svg"><path d="m28 0h-24c-2.197 0-4 1.803-4 4v5.145s5.14 2.985 5.464 3.172c.411.24.927.235 1.339 0 .348-.197 10.692-6.145 10.848-6.235.371-.213.771-.14.995-.009.219.124.813.463 1.12.635.313.183.297.672.021.833l-12.948 7.453c-.464.265-.921.271-1.401 0-.801-.453-4.109-2.375-5.437-3.151v2.692l5.464 3.172c.411.24.927.24 1.339 0 .348-.192 10.692-6.145 10.848-6.235.371-.213.771-.14.995-.009.219.129.813.463 1.12.64.313.177.297.667.021.828s-12.385 7.125-12.948 7.453c-.464.265-.921.271-1.401 0-.801-.453-4.109-2.375-5.437-3.151v2.692l5.464 3.172c.411.245.927.24 1.339 0 .348-.192 10.692-6.14 10.848-6.235.371-.213.771-.14.995-.009.219.129.813.463 1.12.64.313.177.297.667.021.828l-12.948 7.453c-.464.265-.921.271-1.401.005-.801-.459-4.109-2.38-5.437-3.156v5.375c0 2.197 1.803 4 4 4h24c2.197 0 4-1.803 4-4v-24c0-2.197-1.803-4-4-4z"/></svg>